<svg xmlns="http://www.w3.org/2000/svg" viewBox="0 0 512 512">
  <rect width="512" height="512" rx="100" fill="#2563eb"/>
  <path d="M368 112H144C126.3 112 112 126.3 112 144V368C112 385.7 126.3 400 144 400H368C385.7 400 400 385.7 400 368V144C400 126.3 385.7 112 368 112Z" fill="#1e40af" opacity="0.2"/>
  <path d="M256 144V368M160 144H352M160 200H352M160 256H352M160 312H352" stroke="white" stroke-width="32" stroke-linecap="round"/>
  <path d="M144 112H368C385.673 112 400 126.327 400 144V368C400 385.673 385.673 400 368 400H144C126.327 400 112 385.673 112 368V144C112 126.327 126.327 112 144 112Z" fill="none" stroke="white" stroke-width="32"/>
</svg>